<?xml version="1.0" standalone="no"?>
<!DOCTYPE svg PUBLIC "-//W3C//DTD SVG 1.1//EN" "http://www.w3.org/Graphics/SVG/1.1/DTD/svg11.dtd" >
<svg xmlns="http://www.w3.org/2000/svg">
<metadata>Generated by IcoMoon</metadata>
<defs>
<font id="icomoon" horiz-adv-x="1024">
<font-face units-per-em="1024" ascent="960" descent="-64" />
<missing-glyph horiz-adv-x="1024" />
<glyph unicode="&#x20;" horiz-adv-x="512" d="" />
<glyph unicode="&#xe900;" glyph-name="-400" d="M536.381-39.619c-35.999 0.395-69.883 17.068-92.16 45.349-86.609 97.99-164.899 203.029-234.057 314.027-60.614 114.575-111.663 233.959-152.625 356.937-23.813 52.889-5.108 115.239 43.886 146.286l165.79 97.524c28.236 16.859 62.41 20.597 93.623 10.24 30.068-10.721 53.942-34.060 65.341-63.878l23.893-54.126 37.547-84.846c13.713-25.728 16.258-55.958 7.039-83.616s-29.393-50.316-55.8-62.67l-43.886-21.455c13.366-36.845 29.673-72.556 48.762-106.789 20.458-33.249 43.444-64.875 68.754-94.598l44.373 25.356c23.265 15.562 51.769 21.224 79.215 15.734s51.58-21.678 67.070-44.991l54.613-74.606c13.653-18.53 26.331-35.109 35.109-48.762 20.404-24.729 28.797-57.23 22.918-88.747-8.056-32.060-29.565-59.079-59.002-74.118l-165.79-97.524c-16.958-8.275-35.785-11.973-54.613-10.728zM296.96 367.055c65.247-104.497 139.136-203.342 220.891-295.497 10.728-12.678 18.53-15.604 25.356-12.678l163.84 96.549c8.777 4.876 12.19 8.777 12.678 10.24-1.46 4.072-3.604 7.864-6.339 11.215l-34.621 48.762-55.101 75.581c-3.901 5.851-6.827 9.752-17.067 3.413l-73.143-42.423c-25.216-15.398-57.933-9.772-76.556 13.166-36.412 41.203-69.051 85.592-97.524 132.632-26.801 47.411-49.164 97.197-66.804 148.724-10.367 28.675 2.431 60.565 29.745 74.118l67.779 39.497c12.678 6.827 10.728 11.215 7.802 17.554-11.703 25.356-25.356 57.051-37.547 85.821-8.777 20.48-19.017 39.497-22.918 53.15-1.746 4.146-4.224 7.945-7.314 11.215-5.147-1.424-10.070-3.557-14.629-6.339l-165.303-97.524c-4.876-3.901-5.851-12.19 0-24.869 38.976-117.727 87.915-231.918 146.286-341.333l0.488-0.975zM752.396 459.215c-3.067-0.509-6.198-0.509-9.265 0-26.11 6.481-42.038 32.883-35.596 59.002 8.776 33.020 3.853 68.184-13.653 97.524-17.137 29.054-45.263 49.973-78.019 58.027-26.123 6.598-41.95 33.123-35.352 59.246s33.123 41.95 59.246 35.352c58.742-13.719 109.412-50.666 140.434-102.4 29.165-51.36 37.043-112.104 21.943-169.204-5.376-22.859-26.28-38.64-49.737-37.547zM926.476 465.554h-9.265c-12.647 3.106-23.525 11.142-30.212 22.317s-8.625 24.56-5.385 37.173c32.947 130.318-45.794 262.717-176.030 295.985-12.557 3.213-23.317 11.294-29.905 22.456s-8.46 24.488-5.204 37.033c6.055 25.801 31.608 42.043 57.539 36.571 87.843-22.192 163.258-78.398 209.631-156.234s59.896-170.915 37.592-258.73c-5.694-22.099-25.953-37.293-48.762-36.571z" />
<glyph unicode="&#xe901;" d="M665.6 294.399h-102.4v102.4h102.4v-102.4z" />
<glyph unicode="&#xe902;" d="M665.6 396.8v-102.4h-102.4v102.4h102.4z" />
<glyph unicode="&#xe903;" d="M665.598-64.001h-102.4v102.4h102.4v-102.4z" />
<glyph unicode="&#xe904;" d="M665.6 38.4v-102.4h-102.4v102.4h102.4z" />
<glyph unicode="&#xe905;" d="M767.998 38.398h-102.4l-0.001 256h102.4l0.001-256z" />
<glyph unicode="&#xe906;" d="M768 38.4h-102.4v256h102.4v-256z" />
<glyph unicode="&#xe907;" d="M921.598-64.002h-153.6v102.4h153.6v-102.4z" />
<glyph unicode="&#xe908;" d="M921.6-64h-153.6v102.4h153.6v-102.4z" />
<glyph unicode="&#xe909;" d="M921.599 294.398h-153.6v102.4h153.6v-102.4z" />
<glyph unicode="&#xe90a;" d="M921.6 294.4h-153.6v102.4h153.6v-102.4z" />
<glyph unicode="&#xe90b;" d="M1023.998 38.398h-102.4l-0.001 256h102.4l0.001-256z" />
<glyph unicode="&#xe90c;" d="M1024 38.4h-102.4v256h102.4v-256z" />
<glyph unicode="&#xe90d;" d="M460.8-64h-460.8v460.8h460.8v-460.8zM102.4 38.4h256v256h-256v-256z" />
<glyph unicode="&#xe90e;" d="M1024 499.2h-460.8v460.8h460.8v-460.8zM665.6 601.6h256v256h-256v-256z" />
<glyph unicode="&#xe90f;" d="M716.8 806.4h153.6v-153.6h-153.6v153.6z" />
<glyph unicode="&#xe910;" d="M716.8 806.4h153.6v-153.6h-153.6v153.6z" />
<glyph unicode="&#xe911;" d="M153.6 243.2h153.6v-153.6h-153.6v153.6z" />
<glyph unicode="&#xe912;" d="M153.6 243.2h153.6v-153.6h-153.6v153.6z" />
<glyph unicode="&#xe913;" d="M460.8 499.2h-460.8v460.8h460.8v-460.8zM102.4 601.6h256v256h-256v-256z" />
<glyph unicode="&#xe914;" d="M153.6 806.4h153.6v-153.6h-153.6v153.6z" />
<glyph unicode="&#xe915;" d="M153.6 806.4h153.6v-153.6h-153.6v153.6z" />
<glyph unicode="&#xe916;" glyph-name="-1" d="M927.189 195.147c-11.272 0.090-22.118 4.305-30.477 11.844l-382.766 338.843-382.766-338.843c-11.817-12.949-30-18.056-46.859-13.162s-29.45 18.935-32.446 36.183c-2.996 17.249 4.125 34.692 18.352 44.953l413.242 366.651c17.565 14.912 43.389 14.912 60.953 0l413.242-366.651c14.052-12.672 18.866-32.639 12.125-50.293s-23.655-29.376-42.602-29.526z" />
<glyph unicode="&#xe917;" glyph-name="-2" d="M46.531 494.551c25.702 0 46.592-20.838 46.592-46.541 0-231.014 187.853-418.867 418.867-418.867s418.918 187.853 418.918 418.867c0 231.014-187.904 418.918-418.918 418.918-118.067 0-227.379-48.23-306.432-133.478l51.814-0.051c28.57 0 51.712-23.194 51.712-51.763 0-28.518-23.142-51.661-51.712-51.661-0.102 0-0.205 0.051-0.307 0.051l-154.931 0.154c-28.467 0-51.558 23.091-51.61 51.558h-0.051l-0.051 155.187h0.051c0 28.57 23.142 51.712 51.712 51.712s51.712-23.142 51.712-51.712c0-0.102-0.051-0.205-0.051-0.307v-23.501c95.13 93.747 221.696 146.893 358.144 146.893 282.317 0 512-229.683 512-512s-229.683-512-512-512c-282.317 0-512 229.683-512 512 0 25.702 20.838 46.541 46.541 46.541zM438.6 425.574h0.051c0.051-28.467 23.142-51.507 51.61-51.558l206.643-0.154c0.102 0 0.205-0.051 0.307-0.051 28.518 0 51.763 23.142 51.763 51.712s-23.245 51.712-51.763 51.712v0.051h-155.238v154.88c0 0.102 0.051 0.205 0.051 0.307 0 28.57-23.142 51.712-51.712 51.712s-51.712-23.142-51.712-51.712h-0.051l0.051-206.899z" />
<glyph unicode="&#xe918;" glyph-name="-3" d="M872.96 519.424l-358.195-353.587c-123.392 119.962-363.162 353.075-363.11 353.024-31.744 31.846-49.254 74.086-49.254 118.989 0 92.928 75.622 168.55 168.55 168.55 53.862 0 106.701-26.419 137.882-68.966 23.757-32.358 62.515-50.944 106.342-50.944 43.93 0 82.739 18.586 106.547 51.046 18.893 25.702 61.030 68.864 131.328 68.864 92.979 0 168.55-75.622 168.55-168.55 0-44.902-17.51-87.142-48.64-118.426zM753.050 908.8c-89.395 0-164.762-43.776-213.862-110.694-4.506-6.144-14.285-9.216-24.013-9.216-9.677 0-19.302 3.021-23.757 9.114-49.152 67.021-131.021 110.797-220.467 110.797-149.658 0-270.95-121.293-270.95-270.95 0-74.701 30.259-142.285 79.155-191.283 0 0 436.070-424.090 436.224-424.090l429.517 424.090c48.845 48.998 79.104 116.582 79.104 191.283 0 149.658-121.293 270.95-270.95 270.95z" />
<glyph unicode="&#xe919;" glyph-name="-4" d="M884.622-64h-745.244c-76.976 0-139.378 62.402-139.378 139.378v745.244c0 76.976 62.402 139.378 139.378 139.378h336.213c31.419 0 56.889-25.47 56.889-56.889s-25.47-56.889-56.889-56.889h-336.213c-14.012-0.301-25.299-11.588-25.6-25.6v-745.244c0.301-14.012 11.588-25.299 25.6-25.6h745.244c14.012 0.301 25.299 11.588 25.6 25.6v312.889c0 31.419 25.47 56.889 56.889 56.889s56.889-25.47 56.889-56.889v-312.889c0-76.976-62.402-139.378-139.378-139.378zM784.498 789.333c4.515 0 8.833-1.85 11.947-5.12l52.338-52.338c6.142-6.562 6.142-16.762 0-23.324l-404.48-405.049c-6.351-2.385-13.146-3.355-19.911-2.844-19.342 0-45.511 2.844-45.511 2.844-6.061 0.303-10.816 5.31-10.809 11.378 0 0-6.827 56.889 0 64.853l404.48 404.48c3.114 3.27 7.432 5.12 11.947 5.12zM784.498 903.111c-34.56 0.022-67.712-13.689-92.16-38.116l-404.48-405.049c-35.341-43.447-47.62-101.244-32.996-155.307 5.066-60.616 53.162-108.712 113.778-113.778 18.888-2.157 37.878-3.296 56.889-3.413 36.063-2.54 71.661 9.326 98.987 32.996l404.48 404.48c50.685 51.209 50.685 133.68 0 184.889l-52.338 52.338c-23.975 25.473-57.187 40.234-92.16 40.96z" />
<glyph unicode="&#xe91a;" d="M960 704h-896c-35.2 0-64-28.8-64-64v-288c0-35.2 28.8-64 64-64h128v-96l128 96h640c35.2 0 64 28.8 64 64v288c0 35.2-28.8 64-64 64z" />
<glyph unicode="&#xe91b;" d="M336 608c-9.6 0-16-6.4-16-16v-80h-160v80c0 9.6-6.4 16-16 16s-16-6.4-16-16v-192c0-9.6 6.4-16 16-16s16 6.4 16 16v80h160v-80c0-9.6 6.4-16 16-16s16 6.4 16 16v192c0 9.6-6.4 16-16 16z" />
<glyph unicode="&#xe91c;" d="M560 608h-96c-35.2 0-64-28.8-64-64v-96c0-35.2 28.8-64 64-64h96c35.2 0 64 28.8 64 64v96c0 35.2-28.8 64-64 64zM592 448c0-19.2-12.8-32-32-32h-96c-19.2 0-32 12.8-32 32v96c0 19.2 12.8 32 32 32h96c19.2 0 32-12.8 32-32v-96z" />
<glyph unicode="&#xe91d;" d="M864 608h-192c-9.6 0-16-6.4-16-16s6.4-16 16-16h80v-176c0-9.6 6.4-16 16-16s16 6.4 16 16v176h80c9.6 0 16 6.4 16 16s-6.4 16-16 16z" />
<glyph unicode="&#xe91e;" glyph-name="-5" d="M999.906 38.4l-174.682 174.682c60.235 78.306 96.376 174.682 96.376 283.106 0 252.988-204.8 463.812-463.812 463.812-252.988 0-457.788-204.8-457.788-463.812 0-252.988 204.8-463.812 463.812-463.812 108.424 0 204.8 36.141 283.106 96.376l174.682-174.682c24.094-24.094 60.235-24.094 78.306 0 24.094 24.094 24.094 60.235 0 84.329zM463.812 158.871c-186.729 0-337.318 150.588-337.318 337.318s150.588 337.318 337.318 337.318 337.318-150.588 337.318-337.318-150.588-337.318-337.318-337.318z" />
<glyph unicode="&#xe91f;" glyph-name="-6" d="M375.040 243.2h272.128c18.24-0.273 35.839 6.729 48.905 19.459s20.525 30.14 20.727 48.381v272.128c-0.14 37.691-30.661 68.212-68.352 68.352h-273.408c-37.491-0.419-67.702-30.859-67.84-68.352v-272.128c0.415-37.294 30.546-67.425 67.84-67.84zM409.088 550.4h204.8v-204.8h-204.288l-0.512 204.8zM903.936 960c66.251-0.141 119.923-53.813 120.064-120.064v-476.672c-0.141-66.251-53.813-119.923-120.064-120.064h-84.736v92.928h84.736c14.929 0.139 26.997 12.207 27.136 27.136v476.672c-0.139 14.929-12.207 26.997-27.136 27.136h-476.672c-14.929-0.139-26.997-12.207-27.136-27.136v-84.736h-92.928v84.736c0.141 66.251 53.813 119.923 120.064 120.064h476.672zM623.872 56.064v84.736h92.928v-84.736c-0.141-66.251-53.813-119.923-120.064-120.064h-476.672c-66.251 0.141-119.923 53.813-120.064 120.064v476.672c0.141 66.251 53.813 119.923 120.064 120.064h84.736v-92.928h-84.736c-14.929-0.139-26.997-12.207-27.136-27.136v-476.672c0.139-14.929 12.207-26.997 27.136-27.136h476.672c14.929 0.139 26.997 12.207 27.136 27.136z" />
<glyph unicode="&#xe920;" glyph-name="-7" d="M483.584 448l-36.096 36.352-152.576-152.576-68.864 68.864-36.096-36.096 104.96-104.96zM921.6 960h-819.2c-56.554 0-102.4-45.846-102.4-102.4v-819.2c0-56.554 45.846-102.4 102.4-102.4h819.2c56.554 0 102.4 45.846 102.4 102.4v819.2c0 56.554-45.846 102.4-102.4 102.4zM914.688 44.544h-806.144v608.256h806.912l-0.768-608.256zM915.456 755.2h-806.912v96.256h806.912v-96.256zM532.992 448h309.504v-51.2h-309.504v51.2zM530.944 334.848h309.504v-51.2h-309.504v51.2z" />
<glyph unicode="&#xe921;" glyph-name="-8" d="M512 38.4c-225.28 0-409.6 184.32-409.6 409.6 0 171.52 104.96 317.44 256 378.88v110.080c-207.36-66.56-358.4-258.56-358.4-488.96 0-281.6 230.4-512 512-512 227.84 0 422.4 151.040 488.96 355.84h-110.080c-61.44-148.48-207.36-253.44-378.88-253.44zM512 960c-17.92 0-33.28 0-51.2-2.56v-563.2h458.24c0 0 0 0 0 0h102.4c2.56 17.92 2.56 35.84 2.56 53.76 0 281.6-230.4 512-512 512zM563.2 496.64v358.4c186.88-23.040 332.8-171.52 355.84-355.84h-355.84z" />
<glyph unicode="&#xe922;" glyph-name="-9" d="M230.4 960c-127.246 0-230.4-103.154-230.4-230.4s103.154-230.4 230.4-230.4h230.4v230.4c0 127.246-103.154 230.4-230.4 230.4zM358.4 601.6h-128c-70.692 0-128 57.308-128 128s57.308 128 128 128c70.692 0 128-57.308 128-128v-128zM1024 729.6c0 127.246-103.154 230.4-230.4 230.4s-230.4-103.154-230.4-230.4v-230.4h230.4c61.106 0 119.709 24.274 162.917 67.483s67.483 101.812 67.483 162.917zM665.6 729.6c0 70.692 57.308 128 128 128s128-57.308 128-128c0-70.692-57.308-128-128-128h-128v128zM0 166.4c0-127.246 103.154-230.4 230.4-230.4s230.4 103.154 230.4 230.4v230.4h-230.4c-127.246 0-230.4-103.154-230.4-230.4zM358.4 166.4c0-70.692-57.308-128-128-128s-128 57.308-128 128c0 70.692 57.308 128 128 128h128v-128zM793.6 396.8h-230.4v-230.4c0-127.246 103.154-230.4 230.4-230.4s230.4 103.154 230.4 230.4c0 127.246-103.154 230.4-230.4 230.4zM793.6 38.4c-70.692 0-128 57.308-128 128v128h128c70.692 0 128-57.308 128-128s-57.308-128-128-128z" />
<glyph unicode="&#xe923;" d="M899.459 171.243h-774.919c-69.189 0-124.541 55.351-124.541 124.541v304.432c0 69.189 55.351 124.541 124.541 124.541h774.919c69.189 0 124.541-55.351 124.541-124.541v-304.432c0-69.189-55.351-124.541-124.541-124.541zM124.541 697.081c-52.584 0-96.865-44.281-96.865-96.865v-304.432c0-52.584 44.281-96.865 96.865-96.865h774.919c52.584 0 96.865 44.281 96.865 96.865v304.432c0 52.584-44.281 96.865-96.865 96.865h-774.919z" />
<glyph unicode="&#xe924;" d="M384.692 575.308h119.005v-30.443h-243.546v-69.189c0-71.957-11.070-132.843-33.211-174.357l-27.676 24.908c16.605 35.978 24.908 88.562 27.676 152.216v96.865h121.773c-5.535 11.070-11.070 22.141-16.605 30.443l35.978 8.303c5.535-11.070 11.070-22.141 16.605-38.746z" />
<glyph unicode="&#xe925;" d="M553.514 495.049l-19.373 24.908c30.443 24.908 49.816 52.584 60.886 85.795l30.443-2.768c-2.768-13.838-8.303-24.908-13.838-35.978h55.351v41.514h30.443v-44.281h105.168v-30.443h-105.168v-47.049h132.843v-30.443h-304.432v33.211h138.378v44.281h-74.724c-8.303-13.838-22.141-27.676-35.978-38.746zM791.524 304.086h-33.211v16.605h-157.751v-16.605h-33.211v124.541h221.405v-124.541zM758.314 348.368v49.816h-157.751v-49.816h157.751z" />
<glyph unicode="&#xe926;" d="M899.459 171.243h-774.919c-69.189 0-124.541 55.351-124.541 124.541v304.432c0 69.189 55.351 124.541 124.541 124.541h774.919c69.189 0 124.541-55.351 124.541-124.541v-304.432c0-69.189-55.351-124.541-124.541-124.541zM124.541 697.081c-52.584 0-96.865-44.281-96.865-96.865v-304.432c0-52.584 44.281-96.865 96.865-96.865h774.919c52.584 0 96.865 44.281 96.865 96.865v304.432c0 52.584-44.281 96.865-96.865 96.865h-774.919z" />
<glyph unicode="&#xe927;" d="M384.692 575.308h119.005v-30.443h-243.546v-69.189c0-71.957-11.070-132.843-33.211-174.357l-27.676 24.908c16.605 35.978 24.908 88.562 27.676 152.216v96.865h121.773c-5.535 11.070-11.070 22.141-16.605 30.443l35.978 8.303c5.535-11.070 11.070-22.141 16.605-38.746z" />
<glyph unicode="&#xe928;" d="M553.514 495.049l-19.373 24.908c30.443 24.908 49.816 52.584 60.886 85.795l30.443-2.768c-2.768-13.838-8.303-24.908-13.838-35.978h55.351v41.514h30.443v-44.281h105.168v-30.443h-105.168v-47.049h132.843v-30.443h-304.432v33.211h138.378v44.281h-74.724c-8.303-13.838-22.141-27.676-35.978-38.746zM791.524 304.086h-33.211v16.605h-157.751v-16.605h-33.211v124.541h221.405v-124.541zM758.314 348.368v49.816h-157.751v-49.816h157.751z" />
<glyph unicode="&#xe929;" glyph-name="uniE929" d="M341.333-64v170.667h-170.667c-93.867 0-170.667 76.8-170.667 170.667v512c0 93.867 76.8 170.667 170.667 170.667h682.667c93.867 0 170.667-76.8 170.667-170.667v-512c0-93.867-76.8-170.667-170.667-170.667h-256l-256-170.667zM170.667 874.667c-51.2 0-85.333-34.133-85.333-85.333v-512c0-51.2 34.133-85.333 85.333-85.333h256v-93.867l145.067 93.867h281.6c51.2 0 85.333 34.133 85.333 85.333v512c0 51.2-34.133 85.333-85.333 85.333h-682.667zM256 704h512v-85.333h-512v85.333zM256 533.333h256v-85.333h-256v85.333z" />
<glyph unicode="&#xe92a;" d="M426.667 704h341.333v-85.333h-341.333v85.333z" />
<glyph unicode="&#xe92b;" d="M256 533.333h512v-85.333h-512v85.333z" />
<glyph unicode="&#xe92c;" d="M256 362.667h512v-85.333h-512v85.333z" />
<glyph unicode="&#xe92d;" d="M810.667-64h-597.333c-119.467 0-213.333 93.867-213.333 213.333v597.333c0 119.467 93.867 213.333 213.333 213.333h597.333c119.467 0 213.333-93.867 213.333-213.333v-597.333c0-119.467-93.867-213.333-213.333-213.333zM213.333 874.667c-68.267 0-128-59.733-128-128v-597.333c0-68.267 59.733-128 128-128h597.333c68.267 0 128 59.733 128 128v597.333c0 68.267-59.733 128-128 128h-597.333z" />
<glyph unicode="&#xe92e;" glyph-name="-10" d="M682.667 405.333c85.333 59.733 136.533 145.067 136.533 247.467 0 170.667-136.533 307.2-307.2 307.2s-307.2-136.533-307.2-307.2c0-102.4 51.2-187.733 136.533-247.467-179.2-68.267-315.733-221.867-341.333-426.667 0-17.067 17.067-42.667 34.133-42.667 25.6 0 51.2 17.067 51.2 34.133 25.6 221.867 204.8 384 426.667 384v0 0c221.867 0 401.067-162.133 426.667-375.467 0-25.6 17.067-34.133 42.667-34.133 0 0 0 0 8.533 0 25.6 0 42.667 25.6 34.133 51.2-25.6 187.733-153.6 349.867-341.333 409.6zM290.133 652.8c0 128 102.4 221.867 221.867 221.867s221.867-93.867 221.867-221.867c0-119.467-102.4-213.333-221.867-213.333v0 0c-119.467 0-221.867 93.867-221.867 213.333z" />
<glyph unicode="&#xe92f;" glyph-name="-11" d="M512 960c-281.6 0-512-230.4-512-512s230.4-512 512-512c136.533 0 264.533 51.2 358.4 153.6 102.4 93.867 153.6 221.867 153.6 358.4 0 281.6-230.4 512-512 512zM512 21.333c-238.933 0-426.667 187.733-426.667 426.667s187.733 426.667 426.667 426.667c110.933 0 221.867-42.667 298.667-128s128-187.733 128-298.667c0-238.933-187.733-426.667-426.667-426.667zM725.333 490.667h-170.667v179.2c0 8.533-8.533 17.067-17.067 25.6s-17.067 8.533-25.6 8.533c-8.533 0-17.067 0-25.6-8.533s-17.067-17.067-17.067-25.6v-179.2h-170.667c-25.6 0-42.667-17.067-42.667-42.667s17.067-42.667 42.667-42.667h170.667v-179.2c0-8.533 8.533-17.067 17.067-25.6s17.067-8.533 25.6-8.533c8.533 0 17.067 0 25.6 8.533s17.067 17.067 17.067 25.6v179.2h170.667c25.6 0 42.667 17.067 42.667 42.667s-17.067 42.667-42.667 42.667z" />
<glyph unicode="&#xe930;" glyph-name="-12" d="M896 362.667c-25.6 0-42.667-17.067-42.667-42.667v-213.333c0-51.2-42.667-93.867-93.867-93.867h-494.933c-51.2 0-93.867 42.667-93.867 93.867v213.333c0 25.6-25.6 42.667-42.667 42.667s-42.667-17.067-42.667-42.667v-213.333c0-93.867 76.8-170.667 170.667-170.667h503.467c93.867 0 170.667 76.8 179.2 170.667v213.333c0 25.6-17.067 42.667-42.667 42.667zM1006.933 678.4l-85.333 170.667c-17.067 34.133-34.133 59.733-68.267 76.8-34.133 25.6-68.267 34.133-102.4 34.133h-477.867c-68.267 0-136.533-42.667-170.667-102.4l-85.333-170.667c-8.533-25.6-17.067-51.2-17.067-85.333 0-51.2 17.067-102.4 51.2-136.533s76.8-59.733 128-59.733h17.067c51.2 0 93.867 17.067 136.533 51.2 8.533 8.533 17.067 17.067 25.6 25.6 34.133-51.2 93.867-76.8 153.6-76.8s119.467 25.6 153.6 76.8c51.2-68.267 145.067-93.867 221.867-59.733s136.533 102.4 136.533 187.733c0 25.6-8.533 51.2-17.067 68.267zM887.467 490.667c-34.133-25.6-85.333-25.6-119.467 0s-59.733 68.267-59.733 110.933c0 25.6-17.067 42.667-42.667 42.667s-42.667-25.6-42.667-42.667c0-59.733-51.2-110.933-110.933-110.933-34.133 0-59.733 8.533-85.333 34.133s-34.133 51.2-34.133 85.333c0 25.6-17.067 42.667-42.667 42.667s-34.133-25.6-34.133-51.2c0-34.133-17.067-59.733-34.133-85.333-25.6-17.067-51.2-25.6-85.333-34.133h-8.533c-59.733 8.533-102.4 59.733-102.4 128 0 8.533 0 25.6 8.533 34.133l85.333 170.667c17.067 34.133 51.2 59.733 93.867 59.733h477.867c42.667 0 76.8-25.6 93.867-59.733l85.333-170.667c8.533-17.067 8.533-34.133 8.533-42.667 0-42.667-17.067-85.333-51.2-110.933z" />
<glyph unicode="&#xe931;" d="M1024 448c0-282.77-229.23-512-512-512s-512 229.23-512 512c0 282.77 229.23 512 512 512s512-229.23 512-512z" />
<glyph unicode="&#xe932;" d="M512 789.333c47.128 0 85.333-38.205 85.333-85.333v-256c0-47.128-38.205-85.333-85.333-85.333s-85.333 38.205-85.333 85.333v256c0 47.128 38.205 85.333 85.333 85.333z" />
<glyph unicode="&#xe933;" d="M597.333 192c0-47.128-38.205-85.333-85.333-85.333s-85.333 38.205-85.333 85.333c0 47.128 38.205 85.333 85.333 85.333s85.333-38.205 85.333-85.333z" />
<glyph unicode="&#xe934;" glyph-name="-13" d="M674.4 447.89l264.248 263.801c44.512 45.214 44.512 117.835 0 163.049-21.503 21.794-50.827 34.060-81.425 34.060s-59.922-12.266-81.425-34.060l-263.48-263.032-264.248 263.801c-45.4 42.356-116.148 41.106-160.027-2.827s-45.128-114.767-2.823-160.222l263.48-264.57-263.48-263.801c-21.768-21.53-34.019-50.889-34.019-81.524s12.251-59.995 34.019-81.524c44.986-44.985 117.864-44.985 162.851 0l264.248 264.57 264.248-264.57c21.54-21.713 50.859-33.898 81.425-33.84 30.499 0.274 59.697 12.409 81.425 33.84 44.512 45.214 44.512 117.835 0 163.049l-265.016 263.801z" />
<glyph unicode="&#xe935;" d="M997.76 739.84c-43.537-29.576-89.331-55.683-136.96-78.080l-7.040-149.76c0-98.56-256-107.52-256 0s16 144 37.12 162.56c21.12 18.56 14.080 39.68-3.84 55.040l-131.84 102.4-128-103.68c-17.92-15.36-24.96-37.12-3.84-55.040s37.12-57.6 37.12-162.56c0-104.96-256-96-256 0l-10.88 151.040c-47.849 22.367-93.858 48.475-137.6 78.080 6.763-136.896 32.613-272.176 76.8-401.92 10.672-23.957 19.237-48.797 25.6-74.24v-71.68c-0.045-21.785 9.4-42.51 25.871-56.769s38.335-20.637 59.889-17.471h622.080c21.554-3.165 43.418 3.213 59.889 17.471s25.916 34.983 25.871 56.769v71.68c6.155 25.422 14.507 50.262 24.96 74.24 44.187 129.744 70.037 265.024 76.8 401.92z" />
<glyph unicode="&#xe936;" d="M337.28 119.040c-23.421 105.669-41.365 212.478-53.76 320-67.84 0-138.88 24.96-138.88 76.8l-7.040 145.92c0 0-51.2 24.32-95.36 50.56 17.92-115.84 85.76-442.88 94.080-489.6 7.649-36.541 21.735-71.431 41.6-103.040h159.36v-0.64z" />
<glyph unicode="&#xe937;" d="M998.4 725.76l-80-71.68c0 0 10.88-135.040-32-177.92-19.11-15.669-44.311-21.792-68.48-16.64-25.080-14.1-53.167-22-81.92-23.040v-4.48c-7.33-104.951-20.363-209.425-39.040-312.96h113.92c21.233-2.934 42.706 3.372 58.981 17.322s25.791 34.206 26.139 55.638v71.68c6.155 25.422 14.507 50.262 24.96 74.24 42.343 125.423 68.37 255.773 77.44 387.84z" />
<glyph unicode="&#xe938;" d="M924.16 243.2h-840.32c-23.788-0.003-43.17 19.095-43.52 42.88h926.72c0-23.682-19.198-42.88-42.88-42.88z" />
<glyph unicode="&#xe939;" d="M924.16 329.6h-840.32c-11.484 0.001-22.489-4.604-30.549-12.785s-12.502-19.252-12.331-30.735h926.080c0.171 11.483-4.271 22.555-12.331 30.735s-19.065 12.786-30.549 12.785z" />
<glyph unicode="&#xe93a;" glyph-name="4" d="M511.054 128c-18.111 0-35.182 7.902-47.652 21.932l-444.452 495.079c-25.681 28.705-25.236 74.504 1.188 102.402s68.583 27.415 94.264-1.29l396.652-442.024 398.582 442.024c26.127 28.544 67.989 29.027 94.413 1.129 26.275-27.899 26.572-73.859 1.039-102.241l-446.382-495.241c-12.618-13.869-29.69-21.771-47.652-21.771z" />
<glyph unicode="&#xe93b;" glyph-name="uniE93B" d="M832 447.054c0-18.111-7.902-35.182-21.932-47.652l-495.079-444.452c-28.705-25.681-74.504-25.236-102.402 1.188s-27.415 68.583 1.29 94.264l442.024 396.652-442.024 398.582c-28.544 26.127-29.027 67.989-1.129 94.413 27.899 26.275 73.859 26.572 102.241 1.039l495.241-446.382c13.869-12.618 21.771-29.69 21.771-47.652z" />
<glyph unicode="&#xe93c;" glyph-name="uniE93C" d="M512.946 768c18.111 0 35.182-7.902 47.652-21.932l444.452-495.079c25.681-28.705 25.236-74.504-1.188-102.402s-68.583-27.415-94.264 1.29l-396.652 442.024-398.582-442.024c-26.127-28.544-67.989-29.027-94.413-1.129-26.275 27.899-26.572 73.859-1.039 102.241l446.382 495.241c12.618 13.869 29.69 21.771 47.652 21.771z" />
<glyph unicode="&#xe93d;" glyph-name="uniE93D" d="M192 448.946c0 18.111 7.902 35.182 21.932 47.652l495.079 444.452c28.705 25.681 74.504 25.236 102.402-1.188s27.415-68.583-1.29-94.264l-442.024-396.652 442.024-398.582c28.544-26.127 29.027-67.989 1.129-94.413-27.899-26.275-73.859-26.572-102.241-1.039l-495.241 446.382c-13.869 12.618-21.771 29.69-21.771 47.652z" />
<glyph unicode="&#xe93e;" glyph-name="-14" d="M512-64c-284.444 0-512 227.556-512 512s227.556 512 512 512c284.444 0 512-227.556 512-512s-227.556-512-512-512zM512 903.111c-250.311 0-455.111-204.8-455.111-455.111s204.8-455.111 455.111-455.111 455.111 204.8 455.111 455.111-204.8 455.111-455.111 455.111zM455.111 260.267c-5.689 0-17.067 0-22.756 5.689-11.378 11.378-11.378 28.444 0 39.822l142.222 142.222-142.222 142.222c-5.689 11.378-5.689 28.444 0 39.822s28.444 11.378 39.822 0l159.289-159.289c11.378-11.378 11.378-28.444 0-39.822l-159.289-159.289c0-11.378-11.378-11.378-17.067-11.378z" />
<glyph unicode="&#xe93f;" glyph-name="011" d="M512-40.727c-269.964 0-488.727 218.764-488.727 488.727s218.764 488.727 488.727 488.727c269.964 0 488.727-218.764 488.727-488.727s-218.764-488.727-488.727-488.727zM512 890.182c-242.036 0-442.182-200.145-442.182-442.182s200.145-442.182 442.182-442.182 442.182 200.145 442.182 442.182-200.145 442.182-442.182 442.182zM418.909 164.073c-4.655 0-13.964 0-18.618 4.655-9.309 9.309-9.309 23.273 0 32.582l246.691 246.691-242.036 246.691c-9.309 9.309-9.309 23.273 0 32.582s23.273 9.309 32.582 0l260.655-256c9.309-9.309 9.309-23.273 0-32.582l-265.309-265.309c-4.655-4.655-9.309-9.309-13.964-9.309z" />
<glyph unicode="&#xe940;" d="M1024 448c0-282.77-229.23-512-512-512s-512 229.23-512 512c0 282.77 229.23 512 512 512s512-229.23 512-512z" />
<glyph unicode="&#xe941;" d="M512 307.2c-28.277 0-51.2 22.923-51.2 51.2v362.496c0 28.277 22.923 51.2 51.2 51.2s51.2-22.923 51.2-51.2v-362.496c0-28.277-22.923-51.2-51.2-51.2z" />
<glyph unicode="&#xe942;" d="M563.2 175.104c0-28.277-22.923-51.2-51.2-51.2s-51.2 22.923-51.2 51.2c0 28.277 22.923 51.2 51.2 51.2s51.2-22.923 51.2-51.2z" />
<glyph unicode="&#xe943;" d="M1024 448c0-282.77-229.23-512-512-512s-512 229.23-512 512c0 282.77 229.23 512 512 512s512-229.23 512-512z" />
<glyph unicode="&#xe944;" d="M441.856 185.344c-13.432 0.057-26.303 5.389-35.84 14.848l-201.216 196.608c-10.507 9.693-16.483 23.337-16.483 37.632s5.976 27.939 16.483 37.632c19.97 19.851 52.222 19.851 72.192 0l162.816-163.328 320 320c19.97 19.851 52.222 19.851 72.192 0 19.851-19.97 19.851-52.222 0-72.192l-355.84-358.4c-9.466-8.349-21.682-12.908-34.304-12.8z" />
</font>
</defs>
</svg>
